<mxfile host="app.diagrams.net" modified="2022-02-20T12:39:08.536Z" agent="5.0 (X11; Linux x86_64) AppleWebKit/537.36 (KHTML, like Gecko) Chrome/96.0.4664.110 Safari/537.36" etag="SArFH19r4kT9nPYvlrCz" version="16.5.6" type="github" pages="5">
  <diagram id="PIkLKbJkYslSJUzyApZZ" name="prove">
    <mxGraphModel dx="1537" dy="493" grid="1" gridSize="10" guides="1" tooltips="1" connect="1" arrows="1" fold="1" page="1" pageScale="1" pageWidth="827" pageHeight="1169" math="1" shadow="0">
      <root>
        <mxCell id="0" />
        <mxCell id="1" parent="0" />
        <mxCell id="wZCry6zqBz8zbw8HxuF2-4" value="&lt;font style=&quot;font-size: 15px&quot;&gt;假设旧桶的数目为`2^n`，新桶的数目为`2^{n+1}`，hash的二进制为`x_{n}x_{n-1}...x_1x_0b`。&amp;nbsp; &amp;nbsp; &amp;nbsp; &amp;nbsp; &amp;nbsp;&lt;br&gt;&lt;br&gt;hash确定旧桶序号：`x_{n}x_{n-1}...x_1x_0b` &amp;amp; `\underbrace{1..1}_{n个}b =x_{n-1}...x_1x_0b`&lt;br&gt;hash确定新桶序号：`x_{n}x_{n-1}...x_1x_0b` &amp;amp; `\underbrace{1..1}_{n+1个}b =x_{n}...x_1x_0b`&amp;nbsp; &amp;nbsp;&lt;br&gt;当hash的第n+1位`x_n`为0时，旧桶序号和新桶序号相同，否则新桶序号等于旧桶序号+`2^n`&lt;/font&gt;" style="text;html=1;strokeColor=none;fillColor=none;align=center;verticalAlign=middle;whiteSpace=wrap;rounded=0;labelPosition=center;verticalLabelPosition=middle;textDirection=ltr;" vertex="1" parent="1">
          <mxGeometry x="-760" y="120" width="610" height="110" as="geometry" />
        </mxCell>
      </root>
    </mxGraphModel>
  </diagram>
  <diagram id="eZC4z5uXwJT3fg_zulpF" name="evacuate">
    <mxGraphModel dx="1014" dy="704" grid="1" gridSize="10" guides="1" tooltips="1" connect="1" arrows="1" fold="1" page="1" pageScale="1" pageWidth="827" pageHeight="1169" math="1" shadow="0">
      <root>
        <mxCell id="gEcDVvxiMSq6167rYUs6-0" />
        <mxCell id="gEcDVvxiMSq6167rYUs6-1" parent="gEcDVvxiMSq6167rYUs6-0" />
        <mxCell id="gEcDVvxiMSq6167rYUs6-3" value="" style="rounded=1;whiteSpace=wrap;html=1;fontSize=15;fillColor=#f0a30a;fontColor=#000000;strokeColor=#BD7000;" vertex="1" parent="gEcDVvxiMSq6167rYUs6-1">
          <mxGeometry x="10" y="270" width="50" height="50" as="geometry" />
        </mxCell>
        <mxCell id="gEcDVvxiMSq6167rYUs6-4" value="" style="rounded=1;whiteSpace=wrap;html=1;fontSize=15;fillColor=#f0a30a;fontColor=#000000;strokeColor=#BD7000;" vertex="1" parent="gEcDVvxiMSq6167rYUs6-1">
          <mxGeometry x="60" y="270" width="50" height="50" as="geometry" />
        </mxCell>
        <mxCell id="gEcDVvxiMSq6167rYUs6-5" value="" style="rounded=1;whiteSpace=wrap;html=1;fontSize=15;fillColor=#f0a30a;fontColor=#000000;strokeColor=#BD7000;" vertex="1" parent="gEcDVvxiMSq6167rYUs6-1">
          <mxGeometry x="110" y="270" width="50" height="50" as="geometry" />
        </mxCell>
        <mxCell id="gEcDVvxiMSq6167rYUs6-6" value="" style="rounded=1;whiteSpace=wrap;html=1;fontSize=15;" vertex="1" parent="gEcDVvxiMSq6167rYUs6-1">
          <mxGeometry x="160" y="270" width="50" height="50" as="geometry" />
        </mxCell>
        <mxCell id="gEcDVvxiMSq6167rYUs6-7" value="" style="rounded=1;whiteSpace=wrap;html=1;fontSize=15;fillColor=#f0a30a;fontColor=#000000;strokeColor=#BD7000;" vertex="1" parent="gEcDVvxiMSq6167rYUs6-1">
          <mxGeometry x="210" y="270" width="50" height="50" as="geometry" />
        </mxCell>
        <mxCell id="gEcDVvxiMSq6167rYUs6-8" value="" style="rounded=1;whiteSpace=wrap;html=1;fontSize=15;fillColor=#f0a30a;fontColor=#000000;strokeColor=#BD7000;" vertex="1" parent="gEcDVvxiMSq6167rYUs6-1">
          <mxGeometry x="260" y="270" width="50" height="50" as="geometry" />
        </mxCell>
        <mxCell id="gEcDVvxiMSq6167rYUs6-9" value="" style="endArrow=classic;html=1;rounded=0;fontSize=15;" edge="1" parent="gEcDVvxiMSq6167rYUs6-1">
          <mxGeometry width="50" height="50" relative="1" as="geometry">
            <mxPoint x="185" y="230" as="sourcePoint" />
            <mxPoint x="184.5" y="270" as="targetPoint" />
          </mxGeometry>
        </mxCell>
        <mxCell id="gEcDVvxiMSq6167rYUs6-10" value="nevacuate" style="text;html=1;strokeColor=none;fillColor=none;align=center;verticalAlign=middle;whiteSpace=wrap;rounded=0;fontSize=15;" vertex="1" parent="gEcDVvxiMSq6167rYUs6-1">
          <mxGeometry x="160" y="200" width="60" height="30" as="geometry" />
        </mxCell>
        <mxCell id="gEcDVvxiMSq6167rYUs6-11" value="" style="rounded=1;whiteSpace=wrap;html=1;fontSize=15;" vertex="1" parent="gEcDVvxiMSq6167rYUs6-1">
          <mxGeometry x="310" y="270" width="50" height="50" as="geometry" />
        </mxCell>
        <mxCell id="gEcDVvxiMSq6167rYUs6-12" value="" style="rounded=1;whiteSpace=wrap;html=1;fontSize=15;fillColor=#f0a30a;fontColor=#000000;strokeColor=#BD7000;" vertex="1" parent="gEcDVvxiMSq6167rYUs6-1">
          <mxGeometry x="450" y="270" width="50" height="50" as="geometry" />
        </mxCell>
        <mxCell id="gEcDVvxiMSq6167rYUs6-13" value="" style="rounded=1;whiteSpace=wrap;html=1;fontSize=15;fillColor=#f0a30a;fontColor=#000000;strokeColor=#BD7000;" vertex="1" parent="gEcDVvxiMSq6167rYUs6-1">
          <mxGeometry x="500" y="270" width="50" height="50" as="geometry" />
        </mxCell>
        <mxCell id="gEcDVvxiMSq6167rYUs6-14" value="" style="rounded=1;whiteSpace=wrap;html=1;fontSize=15;fillColor=#f0a30a;fontColor=#000000;strokeColor=#BD7000;" vertex="1" parent="gEcDVvxiMSq6167rYUs6-1">
          <mxGeometry x="550" y="270" width="50" height="50" as="geometry" />
        </mxCell>
        <mxCell id="gEcDVvxiMSq6167rYUs6-15" value="" style="rounded=1;whiteSpace=wrap;html=1;fontSize=15;fillColor=#f0a30a;strokeColor=#BD7000;fontColor=#000000;" vertex="1" parent="gEcDVvxiMSq6167rYUs6-1">
          <mxGeometry x="600" y="270" width="50" height="50" as="geometry" />
        </mxCell>
        <mxCell id="gEcDVvxiMSq6167rYUs6-16" value="" style="rounded=1;whiteSpace=wrap;html=1;fontSize=15;fillColor=#f0a30a;fontColor=#000000;strokeColor=#BD7000;" vertex="1" parent="gEcDVvxiMSq6167rYUs6-1">
          <mxGeometry x="650" y="270" width="50" height="50" as="geometry" />
        </mxCell>
        <mxCell id="gEcDVvxiMSq6167rYUs6-17" value="" style="rounded=1;whiteSpace=wrap;html=1;fontSize=15;fillColor=#f0a30a;fontColor=#000000;strokeColor=#BD7000;" vertex="1" parent="gEcDVvxiMSq6167rYUs6-1">
          <mxGeometry x="700" y="270" width="50" height="50" as="geometry" />
        </mxCell>
        <mxCell id="gEcDVvxiMSq6167rYUs6-18" value="" style="endArrow=classic;html=1;rounded=0;fontSize=15;entryX=0.5;entryY=0;entryDx=0;entryDy=0;exitX=0.5;exitY=1;exitDx=0;exitDy=0;" edge="1" parent="gEcDVvxiMSq6167rYUs6-1" source="gEcDVvxiMSq6167rYUs6-19" target="gEcDVvxiMSq6167rYUs6-20">
          <mxGeometry width="50" height="50" relative="1" as="geometry">
            <mxPoint x="625" y="230" as="sourcePoint" />
            <mxPoint x="624.5" y="270" as="targetPoint" />
          </mxGeometry>
        </mxCell>
        <mxCell id="gEcDVvxiMSq6167rYUs6-19" value="nevacuate" style="text;html=1;strokeColor=none;fillColor=none;align=center;verticalAlign=middle;whiteSpace=wrap;rounded=0;fontSize=15;" vertex="1" parent="gEcDVvxiMSq6167rYUs6-1">
          <mxGeometry x="745" y="200" width="60" height="30" as="geometry" />
        </mxCell>
        <mxCell id="gEcDVvxiMSq6167rYUs6-20" value="" style="rounded=1;whiteSpace=wrap;html=1;fontSize=15;" vertex="1" parent="gEcDVvxiMSq6167rYUs6-1">
          <mxGeometry x="750" y="270" width="50" height="50" as="geometry" />
        </mxCell>
        <mxCell id="gEcDVvxiMSq6167rYUs6-21" value="" style="endArrow=classic;html=1;rounded=0;fontSize=15;" edge="1" parent="gEcDVvxiMSq6167rYUs6-1">
          <mxGeometry width="50" height="50" relative="1" as="geometry">
            <mxPoint x="370" y="294.29" as="sourcePoint" />
            <mxPoint x="450" y="294.29" as="targetPoint" />
          </mxGeometry>
        </mxCell>
        <mxCell id="gEcDVvxiMSq6167rYUs6-22" value="" style="shape=curlyBracket;whiteSpace=wrap;html=1;rounded=1;fontSize=15;size=0;rotation=-90;" vertex="1" parent="gEcDVvxiMSq6167rYUs6-1">
          <mxGeometry x="253.75" y="286.25" width="11.88" height="100" as="geometry" />
        </mxCell>
        <mxCell id="gEcDVvxiMSq6167rYUs6-24" value="这两个在growWork的第一个evacuate中迁移" style="text;html=1;strokeColor=none;fillColor=none;align=center;verticalAlign=middle;whiteSpace=wrap;rounded=0;fontSize=15;" vertex="1" parent="gEcDVvxiMSq6167rYUs6-1">
          <mxGeometry x="164.54" y="356.25" width="190.31" height="30" as="geometry" />
        </mxCell>
        <mxCell id="gEcDVvxiMSq6167rYUs6-25" value="将nevacuate指向的桶迁移" style="text;html=1;strokeColor=none;fillColor=none;align=center;verticalAlign=middle;whiteSpace=wrap;rounded=0;fontSize=15;" vertex="1" parent="gEcDVvxiMSq6167rYUs6-1">
          <mxGeometry x="310" y="230" width="210" height="30" as="geometry" />
        </mxCell>
        <mxCell id="gEcDVvxiMSq6167rYUs6-26" value="橙色的桶已经迁移" style="text;html=1;strokeColor=none;fillColor=none;align=center;verticalAlign=middle;whiteSpace=wrap;rounded=0;fontSize=15;" vertex="1" parent="gEcDVvxiMSq6167rYUs6-1">
          <mxGeometry x="140" y="170" width="140" height="30" as="geometry" />
        </mxCell>
        <mxCell id="rYLqvCSK1PNKpwbV-Q7N-0" value="@gufeijun" style="text;html=1;strokeColor=none;fillColor=none;align=center;verticalAlign=middle;whiteSpace=wrap;rounded=0;fontSize=15;fontFamily=Times New Roman;" vertex="1" parent="gEcDVvxiMSq6167rYUs6-1">
          <mxGeometry x="630" y="170" width="170" height="30" as="geometry" />
        </mxCell>
      </root>
    </mxGraphModel>
  </diagram>
  <diagram id="cs_cSacWDkqs1k3pRdvI" name="delete">
    <mxGraphModel dx="1014" dy="704" grid="1" gridSize="10" guides="1" tooltips="1" connect="1" arrows="1" fold="1" page="1" pageScale="1" pageWidth="827" pageHeight="1169" math="1" shadow="0">
      <root>
        <mxCell id="2eqGm6NwBeQE88LM1V3f-0" />
        <mxCell id="2eqGm6NwBeQE88LM1V3f-1" parent="2eqGm6NwBeQE88LM1V3f-0" />
        <mxCell id="UjhZEgCqsP1Oncyb9mvK-0" value="" style="rounded=1;whiteSpace=wrap;html=1;fontSize=11;fillColor=#f0a30a;strokeColor=#BD7000;fontColor=#000000;" vertex="1" parent="2eqGm6NwBeQE88LM1V3f-1">
          <mxGeometry x="30" y="260" width="50" height="50" as="geometry" />
        </mxCell>
        <mxCell id="UjhZEgCqsP1Oncyb9mvK-1" value="" style="rounded=1;whiteSpace=wrap;html=1;fontSize=15;fillColor=#f0a30a;fontColor=#000000;strokeColor=#BD7000;" vertex="1" parent="2eqGm6NwBeQE88LM1V3f-1">
          <mxGeometry x="80" y="260" width="50" height="50" as="geometry" />
        </mxCell>
        <mxCell id="UjhZEgCqsP1Oncyb9mvK-2" value="" style="rounded=1;whiteSpace=wrap;html=1;fontSize=15;fillColor=#cdeb8b;strokeColor=#36393d;" vertex="1" parent="2eqGm6NwBeQE88LM1V3f-1">
          <mxGeometry x="130" y="260" width="50" height="50" as="geometry" />
        </mxCell>
        <mxCell id="UjhZEgCqsP1Oncyb9mvK-3" value="" style="rounded=1;whiteSpace=wrap;html=1;fontSize=15;fillColor=#f0a30a;fontColor=#000000;strokeColor=#BD7000;" vertex="1" parent="2eqGm6NwBeQE88LM1V3f-1">
          <mxGeometry x="180" y="260" width="50" height="50" as="geometry" />
        </mxCell>
        <mxCell id="UjhZEgCqsP1Oncyb9mvK-4" value="" style="rounded=1;whiteSpace=wrap;html=1;fontSize=15;fillColor=#76608a;fontColor=#ffffff;strokeColor=#432D57;" vertex="1" parent="2eqGm6NwBeQE88LM1V3f-1">
          <mxGeometry x="230" y="260" width="50" height="50" as="geometry" />
        </mxCell>
        <mxCell id="UjhZEgCqsP1Oncyb9mvK-5" value="" style="rounded=1;whiteSpace=wrap;html=1;fontSize=15;fillColor=#76608a;fontColor=#ffffff;strokeColor=#432D57;" vertex="1" parent="2eqGm6NwBeQE88LM1V3f-1">
          <mxGeometry x="280" y="260" width="50" height="50" as="geometry" />
        </mxCell>
        <mxCell id="UjhZEgCqsP1Oncyb9mvK-6" value="" style="rounded=1;whiteSpace=wrap;html=1;fontSize=15;fillColor=#76608a;fontColor=#ffffff;strokeColor=#432D57;" vertex="1" parent="2eqGm6NwBeQE88LM1V3f-1">
          <mxGeometry x="330" y="260" width="50" height="50" as="geometry" />
        </mxCell>
        <mxCell id="UjhZEgCqsP1Oncyb9mvK-7" value="" style="rounded=1;whiteSpace=wrap;html=1;fontSize=11;fillColor=#f0a30a;strokeColor=#BD7000;fontColor=#000000;" vertex="1" parent="2eqGm6NwBeQE88LM1V3f-1">
          <mxGeometry x="540" y="170" width="30" height="30" as="geometry" />
        </mxCell>
        <mxCell id="UjhZEgCqsP1Oncyb9mvK-9" value="非空cell" style="text;html=1;strokeColor=none;fillColor=none;align=center;verticalAlign=middle;whiteSpace=wrap;rounded=0;fontFamily=Times New Roman;fontSize=1;" vertex="1" parent="2eqGm6NwBeQE88LM1V3f-1">
          <mxGeometry x="570" y="170" width="60" height="30" as="geometry" />
        </mxCell>
        <mxCell id="UjhZEgCqsP1Oncyb9mvK-10" value="" style="rounded=1;whiteSpace=wrap;html=1;fontSize=11;fillColor=#cdeb8b;strokeColor=#36393d;" vertex="1" parent="2eqGm6NwBeQE88LM1V3f-1">
          <mxGeometry x="410" y="170" width="30" height="30" as="geometry" />
        </mxCell>
        <mxCell id="UjhZEgCqsP1Oncyb9mvK-11" value="emptyOne" style="text;html=1;strokeColor=none;fillColor=none;align=center;verticalAlign=middle;whiteSpace=wrap;rounded=0;fontFamily=Times New Roman;fontSize=1;" vertex="1" parent="2eqGm6NwBeQE88LM1V3f-1">
          <mxGeometry x="440" y="170" width="60" height="30" as="geometry" />
        </mxCell>
        <mxCell id="UjhZEgCqsP1Oncyb9mvK-12" value="" style="rounded=1;whiteSpace=wrap;html=1;fontSize=11;fillColor=#76608a;strokeColor=#432D57;fontColor=#ffffff;" vertex="1" parent="2eqGm6NwBeQE88LM1V3f-1">
          <mxGeometry x="290" y="170" width="30" height="30" as="geometry" />
        </mxCell>
        <mxCell id="UjhZEgCqsP1Oncyb9mvK-13" value="emptyRest" style="text;html=1;strokeColor=none;fillColor=none;align=center;verticalAlign=middle;whiteSpace=wrap;rounded=0;fontFamily=Times New Roman;fontSize=1;" vertex="1" parent="2eqGm6NwBeQE88LM1V3f-1">
          <mxGeometry x="320" y="170" width="60" height="30" as="geometry" />
        </mxCell>
        <mxCell id="UjhZEgCqsP1Oncyb9mvK-14" value="" style="endArrow=classic;html=1;rounded=0;fontFamily=Times New Roman;fontSize=1;strokeWidth=2;" edge="1" parent="2eqGm6NwBeQE88LM1V3f-1">
          <mxGeometry width="50" height="50" relative="1" as="geometry">
            <mxPoint x="205" y="360" as="sourcePoint" />
            <mxPoint x="204.5" y="310" as="targetPoint" />
          </mxGeometry>
        </mxCell>
        <mxCell id="UjhZEgCqsP1Oncyb9mvK-16" value="删除" style="text;html=1;strokeColor=none;fillColor=none;align=center;verticalAlign=middle;whiteSpace=wrap;rounded=0;fontFamily=Times New Roman;fontSize=6;" vertex="1" parent="2eqGm6NwBeQE88LM1V3f-1">
          <mxGeometry x="170" y="350" width="70" height="40" as="geometry" />
        </mxCell>
        <mxCell id="UjhZEgCqsP1Oncyb9mvK-21" value="" style="rounded=1;whiteSpace=wrap;html=1;fontSize=11;fillColor=#f0a30a;strokeColor=#BD7000;fontColor=#000000;" vertex="1" parent="2eqGm6NwBeQE88LM1V3f-1">
          <mxGeometry x="520" y="260" width="50" height="50" as="geometry" />
        </mxCell>
        <mxCell id="UjhZEgCqsP1Oncyb9mvK-22" value="" style="rounded=1;whiteSpace=wrap;html=1;fontSize=15;fillColor=#f0a30a;fontColor=#000000;strokeColor=#BD7000;" vertex="1" parent="2eqGm6NwBeQE88LM1V3f-1">
          <mxGeometry x="570" y="260" width="50" height="50" as="geometry" />
        </mxCell>
        <mxCell id="UjhZEgCqsP1Oncyb9mvK-23" value="" style="rounded=1;whiteSpace=wrap;html=1;fontSize=15;fillColor=#76608a;strokeColor=#432D57;fontColor=#ffffff;" vertex="1" parent="2eqGm6NwBeQE88LM1V3f-1">
          <mxGeometry x="620" y="260" width="50" height="50" as="geometry" />
        </mxCell>
        <mxCell id="UjhZEgCqsP1Oncyb9mvK-24" value="" style="rounded=1;whiteSpace=wrap;html=1;fontSize=15;fillColor=#76608a;fontColor=#ffffff;strokeColor=#432D57;" vertex="1" parent="2eqGm6NwBeQE88LM1V3f-1">
          <mxGeometry x="670" y="260" width="50" height="50" as="geometry" />
        </mxCell>
        <mxCell id="UjhZEgCqsP1Oncyb9mvK-25" value="" style="rounded=1;whiteSpace=wrap;html=1;fontSize=15;fillColor=#76608a;fontColor=#ffffff;strokeColor=#432D57;" vertex="1" parent="2eqGm6NwBeQE88LM1V3f-1">
          <mxGeometry x="720" y="260" width="50" height="50" as="geometry" />
        </mxCell>
        <mxCell id="UjhZEgCqsP1Oncyb9mvK-26" value="" style="rounded=1;whiteSpace=wrap;html=1;fontSize=15;fillColor=#76608a;fontColor=#ffffff;strokeColor=#432D57;" vertex="1" parent="2eqGm6NwBeQE88LM1V3f-1">
          <mxGeometry x="770" y="260" width="50" height="50" as="geometry" />
        </mxCell>
        <mxCell id="UjhZEgCqsP1Oncyb9mvK-27" value="" style="rounded=1;whiteSpace=wrap;html=1;fontSize=15;fillColor=#76608a;fontColor=#ffffff;strokeColor=#432D57;" vertex="1" parent="2eqGm6NwBeQE88LM1V3f-1">
          <mxGeometry x="820" y="260" width="50" height="50" as="geometry" />
        </mxCell>
        <mxCell id="UjhZEgCqsP1Oncyb9mvK-30" value="" style="endArrow=classic;html=1;rounded=0;fontFamily=Times New Roman;fontSize=6;strokeWidth=2;" edge="1" parent="2eqGm6NwBeQE88LM1V3f-1">
          <mxGeometry width="50" height="50" relative="1" as="geometry">
            <mxPoint x="400" y="284.29" as="sourcePoint" />
            <mxPoint x="500" y="284.29" as="targetPoint" />
          </mxGeometry>
        </mxCell>
        <mxCell id="LwOdnbOORPAbWac-upPU-0" value="@gufeijun" style="text;html=1;strokeColor=none;fillColor=none;align=center;verticalAlign=middle;whiteSpace=wrap;rounded=0;fontSize=15;fontFamily=Times New Roman;" vertex="1" parent="2eqGm6NwBeQE88LM1V3f-1">
          <mxGeometry x="700" y="190" width="170" height="30" as="geometry" />
        </mxCell>
      </root>
    </mxGraphModel>
  </diagram>
  <diagram id="uFh2XDJQiE0kb1zy5ElS" name="grow">
    <mxGraphModel dx="1014" dy="704" grid="1" gridSize="10" guides="1" tooltips="1" connect="1" arrows="1" fold="1" page="1" pageScale="1" pageWidth="827" pageHeight="1169" math="1" shadow="0">
      <root>
        <mxCell id="PkmcnU70n_Jtx3Pfp5GW-0" />
        <mxCell id="PkmcnU70n_Jtx3Pfp5GW-1" parent="PkmcnU70n_Jtx3Pfp5GW-0" />
        <mxCell id="PkmcnU70n_Jtx3Pfp5GW-56" value="" style="rounded=0;whiteSpace=wrap;html=1;fontFamily=Times New Roman;fontSize=6;" vertex="1" parent="PkmcnU70n_Jtx3Pfp5GW-1">
          <mxGeometry x="60" y="190" width="240" height="170" as="geometry" />
        </mxCell>
        <mxCell id="PkmcnU70n_Jtx3Pfp5GW-36" value="" style="rounded=0;whiteSpace=wrap;html=1;fontFamily=Times New Roman;fontSize=6;" vertex="1" parent="PkmcnU70n_Jtx3Pfp5GW-1">
          <mxGeometry x="60" y="260" width="30" height="50" as="geometry" />
        </mxCell>
        <mxCell id="PkmcnU70n_Jtx3Pfp5GW-37" value="" style="rounded=0;whiteSpace=wrap;html=1;fontFamily=Times New Roman;fontSize=6;" vertex="1" parent="PkmcnU70n_Jtx3Pfp5GW-1">
          <mxGeometry x="90" y="260" width="30" height="50" as="geometry" />
        </mxCell>
        <mxCell id="PkmcnU70n_Jtx3Pfp5GW-38" value="" style="rounded=0;whiteSpace=wrap;html=1;fontFamily=Times New Roman;fontSize=6;" vertex="1" parent="PkmcnU70n_Jtx3Pfp5GW-1">
          <mxGeometry x="120" y="260" width="30" height="50" as="geometry" />
        </mxCell>
        <mxCell id="PkmcnU70n_Jtx3Pfp5GW-39" value="" style="rounded=0;whiteSpace=wrap;html=1;fontFamily=Times New Roman;fontSize=6;" vertex="1" parent="PkmcnU70n_Jtx3Pfp5GW-1">
          <mxGeometry x="150" y="260" width="30" height="50" as="geometry" />
        </mxCell>
        <mxCell id="PkmcnU70n_Jtx3Pfp5GW-40" value="" style="rounded=0;whiteSpace=wrap;html=1;fontFamily=Times New Roman;fontSize=6;" vertex="1" parent="PkmcnU70n_Jtx3Pfp5GW-1">
          <mxGeometry x="180" y="260" width="30" height="50" as="geometry" />
        </mxCell>
        <mxCell id="PkmcnU70n_Jtx3Pfp5GW-41" value="" style="rounded=0;whiteSpace=wrap;html=1;fontFamily=Times New Roman;fontSize=6;" vertex="1" parent="PkmcnU70n_Jtx3Pfp5GW-1">
          <mxGeometry x="210" y="260" width="30" height="50" as="geometry" />
        </mxCell>
        <mxCell id="PkmcnU70n_Jtx3Pfp5GW-42" value="" style="rounded=0;whiteSpace=wrap;html=1;fontFamily=Times New Roman;fontSize=6;" vertex="1" parent="PkmcnU70n_Jtx3Pfp5GW-1">
          <mxGeometry x="240" y="260" width="30" height="50" as="geometry" />
        </mxCell>
        <mxCell id="PkmcnU70n_Jtx3Pfp5GW-43" value="" style="rounded=0;whiteSpace=wrap;html=1;fontFamily=Times New Roman;fontSize=6;" vertex="1" parent="PkmcnU70n_Jtx3Pfp5GW-1">
          <mxGeometry x="270" y="260" width="30" height="50" as="geometry" />
        </mxCell>
        <mxCell id="PkmcnU70n_Jtx3Pfp5GW-44" value="" style="rounded=0;whiteSpace=wrap;html=1;fontFamily=Times New Roman;fontSize=6;fillColor=#f0a30a;fontColor=#000000;strokeColor=#BD7000;" vertex="1" parent="PkmcnU70n_Jtx3Pfp5GW-1">
          <mxGeometry x="370" y="260" width="30" height="50" as="geometry" />
        </mxCell>
        <mxCell id="PkmcnU70n_Jtx3Pfp5GW-45" value="" style="rounded=0;whiteSpace=wrap;html=1;fontFamily=Times New Roman;fontSize=6;fillColor=#f0a30a;fontColor=#000000;strokeColor=#BD7000;" vertex="1" parent="PkmcnU70n_Jtx3Pfp5GW-1">
          <mxGeometry x="400" y="260" width="30" height="50" as="geometry" />
        </mxCell>
        <mxCell id="PkmcnU70n_Jtx3Pfp5GW-46" value="" style="rounded=0;whiteSpace=wrap;html=1;fontFamily=Times New Roman;fontSize=6;fillColor=#f0a30a;fontColor=#000000;strokeColor=#BD7000;" vertex="1" parent="PkmcnU70n_Jtx3Pfp5GW-1">
          <mxGeometry x="430" y="260" width="30" height="50" as="geometry" />
        </mxCell>
        <mxCell id="PkmcnU70n_Jtx3Pfp5GW-47" value="" style="rounded=0;whiteSpace=wrap;html=1;fontFamily=Times New Roman;fontSize=6;fillColor=#f0a30a;fontColor=#000000;strokeColor=#BD7000;" vertex="1" parent="PkmcnU70n_Jtx3Pfp5GW-1">
          <mxGeometry x="460" y="260" width="30" height="50" as="geometry" />
        </mxCell>
        <mxCell id="PkmcnU70n_Jtx3Pfp5GW-48" value="" style="rounded=0;whiteSpace=wrap;html=1;fontFamily=Times New Roman;fontSize=6;fillColor=#f0a30a;fontColor=#000000;strokeColor=#BD7000;" vertex="1" parent="PkmcnU70n_Jtx3Pfp5GW-1">
          <mxGeometry x="490" y="260" width="30" height="50" as="geometry" />
        </mxCell>
        <mxCell id="PkmcnU70n_Jtx3Pfp5GW-49" value="" style="rounded=0;whiteSpace=wrap;html=1;fontFamily=Times New Roman;fontSize=6;fillColor=#f0a30a;fontColor=#000000;strokeColor=#BD7000;" vertex="1" parent="PkmcnU70n_Jtx3Pfp5GW-1">
          <mxGeometry x="520" y="260" width="30" height="50" as="geometry" />
        </mxCell>
        <mxCell id="PkmcnU70n_Jtx3Pfp5GW-50" value="" style="rounded=0;whiteSpace=wrap;html=1;fontFamily=Times New Roman;fontSize=6;fillColor=#f0a30a;fontColor=#000000;strokeColor=#BD7000;" vertex="1" parent="PkmcnU70n_Jtx3Pfp5GW-1">
          <mxGeometry x="550" y="260" width="30" height="50" as="geometry" />
        </mxCell>
        <mxCell id="PkmcnU70n_Jtx3Pfp5GW-51" value="" style="rounded=0;whiteSpace=wrap;html=1;fontFamily=Times New Roman;fontSize=6;fillColor=#f0a30a;fontColor=#000000;strokeColor=#BD7000;" vertex="1" parent="PkmcnU70n_Jtx3Pfp5GW-1">
          <mxGeometry x="580" y="260" width="30" height="50" as="geometry" />
        </mxCell>
        <mxCell id="PkmcnU70n_Jtx3Pfp5GW-53" value="bmap" style="text;html=1;strokeColor=none;fillColor=none;align=center;verticalAlign=middle;whiteSpace=wrap;rounded=0;fontFamily=Times New Roman;fontSize=6;" vertex="1" parent="PkmcnU70n_Jtx3Pfp5GW-1">
          <mxGeometry x="150" y="230" width="60" height="30" as="geometry" />
        </mxCell>
        <mxCell id="PkmcnU70n_Jtx3Pfp5GW-54" value="bmap" style="text;html=1;strokeColor=none;fillColor=none;align=center;verticalAlign=middle;whiteSpace=wrap;rounded=0;fontFamily=Times New Roman;fontSize=6;" vertex="1" parent="PkmcnU70n_Jtx3Pfp5GW-1">
          <mxGeometry x="460" y="230" width="60" height="30" as="geometry" />
        </mxCell>
        <mxCell id="PkmcnU70n_Jtx3Pfp5GW-57" value="hmap.buckets" style="text;html=1;strokeColor=none;fillColor=none;align=center;verticalAlign=middle;whiteSpace=wrap;rounded=0;fontFamily=Times New Roman;fontSize=6;" vertex="1" parent="PkmcnU70n_Jtx3Pfp5GW-1">
          <mxGeometry x="150" y="190" width="60" height="30" as="geometry" />
        </mxCell>
        <mxCell id="PkmcnU70n_Jtx3Pfp5GW-68" value="" style="rounded=0;whiteSpace=wrap;html=1;fontFamily=Times New Roman;fontSize=6;fillColor=#f0a30a;fontColor=#000000;strokeColor=#BD7000;" vertex="1" parent="PkmcnU70n_Jtx3Pfp5GW-1">
          <mxGeometry x="670" y="260" width="30" height="50" as="geometry" />
        </mxCell>
        <mxCell id="PkmcnU70n_Jtx3Pfp5GW-69" value="" style="rounded=0;whiteSpace=wrap;html=1;fontFamily=Times New Roman;fontSize=6;fillColor=#f0a30a;fontColor=#000000;strokeColor=#BD7000;" vertex="1" parent="PkmcnU70n_Jtx3Pfp5GW-1">
          <mxGeometry x="700" y="260" width="30" height="50" as="geometry" />
        </mxCell>
        <mxCell id="PkmcnU70n_Jtx3Pfp5GW-70" value="" style="rounded=0;whiteSpace=wrap;html=1;fontFamily=Times New Roman;fontSize=6;fillColor=#f0a30a;fontColor=#000000;strokeColor=#BD7000;" vertex="1" parent="PkmcnU70n_Jtx3Pfp5GW-1">
          <mxGeometry x="730" y="260" width="30" height="50" as="geometry" />
        </mxCell>
        <mxCell id="PkmcnU70n_Jtx3Pfp5GW-71" value="" style="rounded=0;whiteSpace=wrap;html=1;fontFamily=Times New Roman;fontSize=6;fillColor=#f0a30a;fontColor=#000000;strokeColor=#BD7000;" vertex="1" parent="PkmcnU70n_Jtx3Pfp5GW-1">
          <mxGeometry x="760" y="260" width="30" height="50" as="geometry" />
        </mxCell>
        <mxCell id="PkmcnU70n_Jtx3Pfp5GW-72" value="" style="rounded=0;whiteSpace=wrap;html=1;fontFamily=Times New Roman;fontSize=6;" vertex="1" parent="PkmcnU70n_Jtx3Pfp5GW-1">
          <mxGeometry x="790" y="260" width="30" height="50" as="geometry" />
        </mxCell>
        <mxCell id="PkmcnU70n_Jtx3Pfp5GW-73" value="" style="rounded=0;whiteSpace=wrap;html=1;fontFamily=Times New Roman;fontSize=6;" vertex="1" parent="PkmcnU70n_Jtx3Pfp5GW-1">
          <mxGeometry x="820" y="260" width="30" height="50" as="geometry" />
        </mxCell>
        <mxCell id="PkmcnU70n_Jtx3Pfp5GW-74" value="" style="rounded=0;whiteSpace=wrap;html=1;fontFamily=Times New Roman;fontSize=6;" vertex="1" parent="PkmcnU70n_Jtx3Pfp5GW-1">
          <mxGeometry x="850" y="260" width="30" height="50" as="geometry" />
        </mxCell>
        <mxCell id="PkmcnU70n_Jtx3Pfp5GW-75" value="" style="rounded=0;whiteSpace=wrap;html=1;fontFamily=Times New Roman;fontSize=6;" vertex="1" parent="PkmcnU70n_Jtx3Pfp5GW-1">
          <mxGeometry x="880" y="260" width="30" height="50" as="geometry" />
        </mxCell>
        <mxCell id="PkmcnU70n_Jtx3Pfp5GW-76" value="bmap" style="text;html=1;strokeColor=none;fillColor=none;align=center;verticalAlign=middle;whiteSpace=wrap;rounded=0;fontFamily=Times New Roman;fontSize=6;" vertex="1" parent="PkmcnU70n_Jtx3Pfp5GW-1">
          <mxGeometry x="760" y="230" width="60" height="30" as="geometry" />
        </mxCell>
        <mxCell id="PkmcnU70n_Jtx3Pfp5GW-78" value="溢出桶" style="text;html=1;strokeColor=none;fillColor=none;align=center;verticalAlign=middle;whiteSpace=wrap;rounded=0;fontFamily=Times New Roman;fontSize=16;" vertex="1" parent="PkmcnU70n_Jtx3Pfp5GW-1">
          <mxGeometry x="570" y="190" width="120" height="60" as="geometry" />
        </mxCell>
        <mxCell id="E2qsuifGtcPh2KfGM9fs-0" value="@gufeijun" style="text;html=1;strokeColor=none;fillColor=none;align=center;verticalAlign=middle;whiteSpace=wrap;rounded=0;fontSize=15;fontFamily=Times New Roman;" vertex="1" parent="PkmcnU70n_Jtx3Pfp5GW-1">
          <mxGeometry x="740" y="180" width="170" height="30" as="geometry" />
        </mxCell>
        <mxCell id="E2qsuifGtcPh2KfGM9fs-2" value="" style="rounded=0;whiteSpace=wrap;html=1;fontFamily=Times New Roman;fontSize=6;" vertex="1" parent="PkmcnU70n_Jtx3Pfp5GW-1">
          <mxGeometry x="390" y="110" width="30" height="50" as="geometry" />
        </mxCell>
        <mxCell id="E2qsuifGtcPh2KfGM9fs-3" value="空cell" style="text;html=1;strokeColor=none;fillColor=none;align=center;verticalAlign=middle;whiteSpace=wrap;rounded=0;fontFamily=Times New Roman;fontSize=16;" vertex="1" parent="PkmcnU70n_Jtx3Pfp5GW-1">
          <mxGeometry x="420" y="120" width="60" height="30" as="geometry" />
        </mxCell>
        <mxCell id="E2qsuifGtcPh2KfGM9fs-4" value="" style="rounded=0;whiteSpace=wrap;html=1;fontFamily=Times New Roman;fontSize=6;fillColor=#f0a30a;fontColor=#000000;strokeColor=#BD7000;" vertex="1" parent="PkmcnU70n_Jtx3Pfp5GW-1">
          <mxGeometry x="530" y="110" width="30" height="50" as="geometry" />
        </mxCell>
        <mxCell id="E2qsuifGtcPh2KfGM9fs-5" value="非空cell" style="text;html=1;strokeColor=none;fillColor=none;align=center;verticalAlign=middle;whiteSpace=wrap;rounded=0;fontFamily=Times New Roman;fontSize=16;" vertex="1" parent="PkmcnU70n_Jtx3Pfp5GW-1">
          <mxGeometry x="570" y="120" width="60" height="30" as="geometry" />
        </mxCell>
        <mxCell id="E2qsuifGtcPh2KfGM9fs-6" value="" style="endArrow=classic;html=1;rounded=0;fontFamily=Times New Roman;fontSize=16;strokeWidth=1;exitX=1;exitY=0.5;exitDx=0;exitDy=0;entryX=0;entryY=0.5;entryDx=0;entryDy=0;" edge="1" parent="PkmcnU70n_Jtx3Pfp5GW-1" source="PkmcnU70n_Jtx3Pfp5GW-43" target="PkmcnU70n_Jtx3Pfp5GW-44">
          <mxGeometry width="50" height="50" relative="1" as="geometry">
            <mxPoint x="460" y="190" as="sourcePoint" />
            <mxPoint x="510" y="140" as="targetPoint" />
          </mxGeometry>
        </mxCell>
        <mxCell id="E2qsuifGtcPh2KfGM9fs-7" value="" style="endArrow=classic;html=1;rounded=0;fontFamily=Times New Roman;fontSize=16;strokeWidth=1;exitX=1;exitY=0.5;exitDx=0;exitDy=0;entryX=0;entryY=0.5;entryDx=0;entryDy=0;" edge="1" parent="PkmcnU70n_Jtx3Pfp5GW-1" source="PkmcnU70n_Jtx3Pfp5GW-51" target="PkmcnU70n_Jtx3Pfp5GW-68">
          <mxGeometry width="50" height="50" relative="1" as="geometry">
            <mxPoint x="310" y="295" as="sourcePoint" />
            <mxPoint x="380" y="295" as="targetPoint" />
          </mxGeometry>
        </mxCell>
      </root>
    </mxGraphModel>
  </diagram>
  <diagram id="06j0s7XFowjxACmTJFmj" name="grow2">
    <mxGraphModel dx="1014" dy="704" grid="1" gridSize="10" guides="1" tooltips="1" connect="1" arrows="1" fold="1" page="1" pageScale="1" pageWidth="827" pageHeight="1169" math="1" shadow="0">
      <root>
        <mxCell id="tD0qVTA2FeqwJ9xhhrf4-0" />
        <mxCell id="tD0qVTA2FeqwJ9xhhrf4-1" parent="tD0qVTA2FeqwJ9xhhrf4-0" />
        <mxCell id="4uR3_rjFOR8kT4_F0RS1-0" value="" style="rounded=0;whiteSpace=wrap;html=1;fontFamily=Times New Roman;fontSize=6;" vertex="1" parent="tD0qVTA2FeqwJ9xhhrf4-1">
          <mxGeometry x="220" y="180" width="240" height="170" as="geometry" />
        </mxCell>
        <mxCell id="4uR3_rjFOR8kT4_F0RS1-1" value="" style="rounded=0;whiteSpace=wrap;html=1;fontFamily=Times New Roman;fontSize=6;fillColor=#f0a30a;fontColor=#000000;strokeColor=#BD7000;" vertex="1" parent="tD0qVTA2FeqwJ9xhhrf4-1">
          <mxGeometry x="220" y="250" width="30" height="50" as="geometry" />
        </mxCell>
        <mxCell id="4uR3_rjFOR8kT4_F0RS1-2" value="" style="rounded=0;whiteSpace=wrap;html=1;fontFamily=Times New Roman;fontSize=6;fillColor=#f0a30a;fontColor=#000000;strokeColor=#BD7000;" vertex="1" parent="tD0qVTA2FeqwJ9xhhrf4-1">
          <mxGeometry x="250" y="250" width="30" height="50" as="geometry" />
        </mxCell>
        <mxCell id="4uR3_rjFOR8kT4_F0RS1-3" value="" style="rounded=0;whiteSpace=wrap;html=1;fontFamily=Times New Roman;fontSize=6;fillColor=#f0a30a;fontColor=#000000;strokeColor=#BD7000;" vertex="1" parent="tD0qVTA2FeqwJ9xhhrf4-1">
          <mxGeometry x="280" y="250" width="30" height="50" as="geometry" />
        </mxCell>
        <mxCell id="4uR3_rjFOR8kT4_F0RS1-4" value="" style="rounded=0;whiteSpace=wrap;html=1;fontFamily=Times New Roman;fontSize=6;fillColor=#f0a30a;fontColor=#000000;strokeColor=#BD7000;" vertex="1" parent="tD0qVTA2FeqwJ9xhhrf4-1">
          <mxGeometry x="310" y="250" width="30" height="50" as="geometry" />
        </mxCell>
        <mxCell id="4uR3_rjFOR8kT4_F0RS1-5" value="" style="rounded=0;whiteSpace=wrap;html=1;fontFamily=Times New Roman;fontSize=6;fillColor=#f0a30a;fontColor=#000000;strokeColor=#BD7000;" vertex="1" parent="tD0qVTA2FeqwJ9xhhrf4-1">
          <mxGeometry x="340" y="250" width="30" height="50" as="geometry" />
        </mxCell>
        <mxCell id="4uR3_rjFOR8kT4_F0RS1-6" value="" style="rounded=0;whiteSpace=wrap;html=1;fontFamily=Times New Roman;fontSize=6;fillColor=#f0a30a;fontColor=#000000;strokeColor=#BD7000;" vertex="1" parent="tD0qVTA2FeqwJ9xhhrf4-1">
          <mxGeometry x="370" y="250" width="30" height="50" as="geometry" />
        </mxCell>
        <mxCell id="4uR3_rjFOR8kT4_F0RS1-7" value="" style="rounded=0;whiteSpace=wrap;html=1;fontFamily=Times New Roman;fontSize=6;fillColor=#f0a30a;fontColor=#000000;strokeColor=#BD7000;" vertex="1" parent="tD0qVTA2FeqwJ9xhhrf4-1">
          <mxGeometry x="400" y="250" width="30" height="50" as="geometry" />
        </mxCell>
        <mxCell id="4uR3_rjFOR8kT4_F0RS1-8" value="" style="rounded=0;whiteSpace=wrap;html=1;fontFamily=Times New Roman;fontSize=6;fillColor=#f0a30a;fontColor=#000000;strokeColor=#BD7000;" vertex="1" parent="tD0qVTA2FeqwJ9xhhrf4-1">
          <mxGeometry x="430" y="250" width="30" height="50" as="geometry" />
        </mxCell>
        <mxCell id="4uR3_rjFOR8kT4_F0RS1-9" value="" style="rounded=0;whiteSpace=wrap;html=1;fontFamily=Times New Roman;fontSize=6;fillColor=#f0a30a;fontColor=#000000;strokeColor=#BD7000;" vertex="1" parent="tD0qVTA2FeqwJ9xhhrf4-1">
          <mxGeometry x="530" y="250" width="30" height="50" as="geometry" />
        </mxCell>
        <mxCell id="4uR3_rjFOR8kT4_F0RS1-10" value="" style="rounded=0;whiteSpace=wrap;html=1;fontFamily=Times New Roman;fontSize=6;fillColor=#f0a30a;fontColor=#000000;strokeColor=#BD7000;" vertex="1" parent="tD0qVTA2FeqwJ9xhhrf4-1">
          <mxGeometry x="560" y="250" width="30" height="50" as="geometry" />
        </mxCell>
        <mxCell id="4uR3_rjFOR8kT4_F0RS1-11" value="" style="rounded=0;whiteSpace=wrap;html=1;fontFamily=Times New Roman;fontSize=6;fillColor=#f0a30a;fontColor=#000000;strokeColor=#BD7000;" vertex="1" parent="tD0qVTA2FeqwJ9xhhrf4-1">
          <mxGeometry x="590" y="250" width="30" height="50" as="geometry" />
        </mxCell>
        <mxCell id="4uR3_rjFOR8kT4_F0RS1-12" value="" style="rounded=0;whiteSpace=wrap;html=1;fontFamily=Times New Roman;fontSize=6;fillColor=#f0a30a;fontColor=#000000;strokeColor=#BD7000;" vertex="1" parent="tD0qVTA2FeqwJ9xhhrf4-1">
          <mxGeometry x="620" y="250" width="30" height="50" as="geometry" />
        </mxCell>
        <mxCell id="4uR3_rjFOR8kT4_F0RS1-13" value="" style="rounded=0;whiteSpace=wrap;html=1;fontFamily=Times New Roman;fontSize=6;" vertex="1" parent="tD0qVTA2FeqwJ9xhhrf4-1">
          <mxGeometry x="650" y="250" width="30" height="50" as="geometry" />
        </mxCell>
        <mxCell id="4uR3_rjFOR8kT4_F0RS1-14" value="" style="rounded=0;whiteSpace=wrap;html=1;fontFamily=Times New Roman;fontSize=6;" vertex="1" parent="tD0qVTA2FeqwJ9xhhrf4-1">
          <mxGeometry x="680" y="250" width="30" height="50" as="geometry" />
        </mxCell>
        <mxCell id="4uR3_rjFOR8kT4_F0RS1-15" value="" style="rounded=0;whiteSpace=wrap;html=1;fontFamily=Times New Roman;fontSize=6;" vertex="1" parent="tD0qVTA2FeqwJ9xhhrf4-1">
          <mxGeometry x="710" y="250" width="30" height="50" as="geometry" />
        </mxCell>
        <mxCell id="4uR3_rjFOR8kT4_F0RS1-16" value="" style="rounded=0;whiteSpace=wrap;html=1;fontFamily=Times New Roman;fontSize=6;" vertex="1" parent="tD0qVTA2FeqwJ9xhhrf4-1">
          <mxGeometry x="740" y="250" width="30" height="50" as="geometry" />
        </mxCell>
        <mxCell id="4uR3_rjFOR8kT4_F0RS1-17" value="bmap" style="text;html=1;strokeColor=none;fillColor=none;align=center;verticalAlign=middle;whiteSpace=wrap;rounded=0;fontFamily=Times New Roman;fontSize=6;" vertex="1" parent="tD0qVTA2FeqwJ9xhhrf4-1">
          <mxGeometry x="310" y="220" width="60" height="30" as="geometry" />
        </mxCell>
        <mxCell id="4uR3_rjFOR8kT4_F0RS1-18" value="bmap" style="text;html=1;strokeColor=none;fillColor=none;align=center;verticalAlign=middle;whiteSpace=wrap;rounded=0;fontFamily=Times New Roman;fontSize=6;" vertex="1" parent="tD0qVTA2FeqwJ9xhhrf4-1">
          <mxGeometry x="620" y="220" width="60" height="30" as="geometry" />
        </mxCell>
        <mxCell id="4uR3_rjFOR8kT4_F0RS1-19" value="hmap.buckets" style="text;html=1;strokeColor=none;fillColor=none;align=center;verticalAlign=middle;whiteSpace=wrap;rounded=0;fontFamily=Times New Roman;fontSize=6;" vertex="1" parent="tD0qVTA2FeqwJ9xhhrf4-1">
          <mxGeometry x="310" y="180" width="60" height="30" as="geometry" />
        </mxCell>
        <mxCell id="4uR3_rjFOR8kT4_F0RS1-30" value="@gufeijun" style="text;html=1;strokeColor=none;fillColor=none;align=center;verticalAlign=middle;whiteSpace=wrap;rounded=0;fontSize=15;fontFamily=Times New Roman;" vertex="1" parent="tD0qVTA2FeqwJ9xhhrf4-1">
          <mxGeometry x="710" y="160" width="170" height="30" as="geometry" />
        </mxCell>
        <mxCell id="4uR3_rjFOR8kT4_F0RS1-31" value="" style="rounded=0;whiteSpace=wrap;html=1;fontFamily=Times New Roman;fontSize=6;" vertex="1" parent="tD0qVTA2FeqwJ9xhhrf4-1">
          <mxGeometry x="515" y="120" width="30" height="50" as="geometry" />
        </mxCell>
        <mxCell id="4uR3_rjFOR8kT4_F0RS1-32" value="空cell" style="text;html=1;strokeColor=none;fillColor=none;align=center;verticalAlign=middle;whiteSpace=wrap;rounded=0;fontFamily=Times New Roman;fontSize=16;" vertex="1" parent="tD0qVTA2FeqwJ9xhhrf4-1">
          <mxGeometry x="545" y="130" width="60" height="30" as="geometry" />
        </mxCell>
        <mxCell id="4uR3_rjFOR8kT4_F0RS1-33" value="" style="rounded=0;whiteSpace=wrap;html=1;fontFamily=Times New Roman;fontSize=6;fillColor=#f0a30a;fontColor=#000000;strokeColor=#BD7000;" vertex="1" parent="tD0qVTA2FeqwJ9xhhrf4-1">
          <mxGeometry x="655" y="120" width="30" height="50" as="geometry" />
        </mxCell>
        <mxCell id="4uR3_rjFOR8kT4_F0RS1-34" value="非空cell" style="text;html=1;strokeColor=none;fillColor=none;align=center;verticalAlign=middle;whiteSpace=wrap;rounded=0;fontFamily=Times New Roman;fontSize=16;" vertex="1" parent="tD0qVTA2FeqwJ9xhhrf4-1">
          <mxGeometry x="695" y="130" width="60" height="30" as="geometry" />
        </mxCell>
        <mxCell id="4uR3_rjFOR8kT4_F0RS1-35" value="" style="endArrow=classic;html=1;rounded=0;fontFamily=Times New Roman;fontSize=16;strokeWidth=1;exitX=1;exitY=0.5;exitDx=0;exitDy=0;entryX=0;entryY=0.5;entryDx=0;entryDy=0;" edge="1" parent="tD0qVTA2FeqwJ9xhhrf4-1" source="4uR3_rjFOR8kT4_F0RS1-8" target="4uR3_rjFOR8kT4_F0RS1-9">
          <mxGeometry width="50" height="50" relative="1" as="geometry">
            <mxPoint x="620" y="180" as="sourcePoint" />
            <mxPoint x="670" y="130" as="targetPoint" />
          </mxGeometry>
        </mxCell>
      </root>
    </mxGraphModel>
  </diagram>
</mxfile>
